<mxfile host="Electron" modified="2024-10-18T05:18:02.161Z" agent="Mozilla/5.0 (Windows NT 10.0; Win64; x64) AppleWebKit/537.36 (KHTML, like Gecko) draw.io/24.4.13 Chrome/124.0.6367.207 Electron/30.0.6 Safari/537.36" etag="hBjwZMovHeuy8NRwutD2" version="24.4.13" type="device">
  <diagram name="Page-1" id="cmvGMz4TQPhAi2bUmEuy">
    <mxGraphModel dx="2442" dy="2124" grid="1" gridSize="10" guides="1" tooltips="1" connect="1" arrows="1" fold="1" page="1" pageScale="1" pageWidth="827" pageHeight="1169" math="0" shadow="0">
      <root>
        <mxCell id="0" />
        <mxCell id="1" parent="0" />
        <mxCell id="xmToaTjJYsY2-gtkwXPX-1" value="" style="shape=mxgraph.cisco.switches.workgroup_switch;sketch=0;html=1;pointerEvents=1;dashed=0;fillColor=#036897;strokeColor=#ffffff;strokeWidth=2;verticalLabelPosition=bottom;verticalAlign=top;align=center;outlineConnect=0;" vertex="1" parent="1">
          <mxGeometry x="20" y="880" width="60" height="30" as="geometry" />
        </mxCell>
        <mxCell id="xmToaTjJYsY2-gtkwXPX-2" value="" style="shape=mxgraph.cisco.switches.workgroup_switch;sketch=0;html=1;pointerEvents=1;dashed=0;fillColor=#036897;strokeColor=#ffffff;strokeWidth=2;verticalLabelPosition=bottom;verticalAlign=top;align=center;outlineConnect=0;" vertex="1" parent="1">
          <mxGeometry x="250" y="880" width="60" height="30" as="geometry" />
        </mxCell>
        <mxCell id="xmToaTjJYsY2-gtkwXPX-41" value="sw4" style="edgeStyle=orthogonalEdgeStyle;rounded=0;orthogonalLoop=1;jettySize=auto;html=1;exitX=0.5;exitY=0;exitDx=0;exitDy=0;exitPerimeter=0;" edge="1" parent="1" source="xmToaTjJYsY2-gtkwXPX-3">
          <mxGeometry relative="1" as="geometry">
            <mxPoint x="230" y="650" as="targetPoint" />
            <Array as="points">
              <mxPoint x="390" y="750" />
              <mxPoint x="231" y="750" />
            </Array>
          </mxGeometry>
        </mxCell>
        <mxCell id="xmToaTjJYsY2-gtkwXPX-3" value="" style="shape=mxgraph.cisco.switches.workgroup_switch;sketch=0;html=1;pointerEvents=1;dashed=0;fillColor=#036897;strokeColor=#ffffff;strokeWidth=2;verticalLabelPosition=bottom;verticalAlign=top;align=center;outlineConnect=0;" vertex="1" parent="1">
          <mxGeometry x="360" y="880" width="60" height="30" as="geometry" />
        </mxCell>
        <mxCell id="xmToaTjJYsY2-gtkwXPX-4" value="" style="shape=mxgraph.cisco.switches.workgroup_switch;sketch=0;html=1;pointerEvents=1;dashed=0;fillColor=#036897;strokeColor=#ffffff;strokeWidth=2;verticalLabelPosition=bottom;verticalAlign=top;align=center;outlineConnect=0;" vertex="1" parent="1">
          <mxGeometry x="470" y="880" width="60" height="30" as="geometry" />
        </mxCell>
        <mxCell id="xmToaTjJYsY2-gtkwXPX-5" value="" style="shape=mxgraph.cisco.switches.workgroup_switch;sketch=0;html=1;pointerEvents=1;dashed=0;fillColor=#036897;strokeColor=#ffffff;strokeWidth=2;verticalLabelPosition=bottom;verticalAlign=top;align=center;outlineConnect=0;" vertex="1" parent="1">
          <mxGeometry x="610" y="880" width="60" height="30" as="geometry" />
        </mxCell>
        <mxCell id="xmToaTjJYsY2-gtkwXPX-6" value="" style="shape=mxgraph.cisco.switches.workgroup_switch;sketch=0;html=1;pointerEvents=1;dashed=0;fillColor=#036897;strokeColor=#ffffff;strokeWidth=2;verticalLabelPosition=bottom;verticalAlign=top;align=center;outlineConnect=0;" vertex="1" parent="1">
          <mxGeometry x="757" y="880" width="60" height="30" as="geometry" />
        </mxCell>
        <mxCell id="xmToaTjJYsY2-gtkwXPX-39" style="edgeStyle=orthogonalEdgeStyle;rounded=0;orthogonalLoop=1;jettySize=auto;html=1;exitX=0.5;exitY=0;exitDx=0;exitDy=0;exitPerimeter=0;" edge="1" parent="1" source="xmToaTjJYsY2-gtkwXPX-9">
          <mxGeometry relative="1" as="geometry">
            <mxPoint x="210" y="650" as="targetPoint" />
            <Array as="points">
              <mxPoint x="150" y="640" />
              <mxPoint x="211" y="640" />
            </Array>
          </mxGeometry>
        </mxCell>
        <mxCell id="xmToaTjJYsY2-gtkwXPX-73" value="Sw2" style="edgeLabel;html=1;align=center;verticalAlign=middle;resizable=0;points=[];" vertex="1" connectable="0" parent="xmToaTjJYsY2-gtkwXPX-39">
          <mxGeometry x="-0.2734" y="-1" relative="1" as="geometry">
            <mxPoint as="offset" />
          </mxGeometry>
        </mxCell>
        <mxCell id="xmToaTjJYsY2-gtkwXPX-48" style="edgeStyle=orthogonalEdgeStyle;rounded=0;orthogonalLoop=1;jettySize=auto;html=1;exitX=1;exitY=0;exitDx=0;exitDy=0;exitPerimeter=0;" edge="1" parent="1" source="xmToaTjJYsY2-gtkwXPX-9" target="xmToaTjJYsY2-gtkwXPX-37">
          <mxGeometry relative="1" as="geometry">
            <Array as="points">
              <mxPoint x="180" y="720" />
              <mxPoint x="675" y="720" />
            </Array>
          </mxGeometry>
        </mxCell>
        <mxCell id="xmToaTjJYsY2-gtkwXPX-74" value="SW2" style="edgeLabel;html=1;align=center;verticalAlign=middle;resizable=0;points=[];" vertex="1" connectable="0" parent="xmToaTjJYsY2-gtkwXPX-48">
          <mxGeometry x="0.392" y="4" relative="1" as="geometry">
            <mxPoint as="offset" />
          </mxGeometry>
        </mxCell>
        <mxCell id="xmToaTjJYsY2-gtkwXPX-9" value="" style="shape=mxgraph.cisco.switches.workgroup_switch;sketch=0;html=1;pointerEvents=1;dashed=0;fillColor=#036897;strokeColor=#ffffff;strokeWidth=2;verticalLabelPosition=bottom;verticalAlign=top;align=center;outlineConnect=0;" vertex="1" parent="1">
          <mxGeometry x="120" y="880" width="60" height="30" as="geometry" />
        </mxCell>
        <mxCell id="xmToaTjJYsY2-gtkwXPX-12" style="edgeStyle=orthogonalEdgeStyle;rounded=0;orthogonalLoop=1;jettySize=auto;html=1;exitX=0.5;exitY=0.98;exitDx=0;exitDy=0;exitPerimeter=0;entryX=0;entryY=0.98;entryDx=0;entryDy=0;entryPerimeter=0;" edge="1" parent="1" source="xmToaTjJYsY2-gtkwXPX-6" target="xmToaTjJYsY2-gtkwXPX-6">
          <mxGeometry relative="1" as="geometry" />
        </mxCell>
        <mxCell id="xmToaTjJYsY2-gtkwXPX-54" style="edgeStyle=orthogonalEdgeStyle;rounded=0;orthogonalLoop=1;jettySize=auto;html=1;exitX=0.5;exitY=0;exitDx=0;exitDy=0;exitPerimeter=0;" edge="1" parent="1" source="xmToaTjJYsY2-gtkwXPX-13">
          <mxGeometry relative="1" as="geometry">
            <mxPoint x="660" y="660" as="targetPoint" />
            <Array as="points">
              <mxPoint x="960" y="880" />
              <mxPoint x="960" y="771" />
              <mxPoint x="660" y="771" />
            </Array>
          </mxGeometry>
        </mxCell>
        <mxCell id="xmToaTjJYsY2-gtkwXPX-63" value="SW8" style="edgeLabel;html=1;align=center;verticalAlign=middle;resizable=0;points=[];" vertex="1" connectable="0" parent="xmToaTjJYsY2-gtkwXPX-54">
          <mxGeometry x="-0.3331" y="-1" relative="1" as="geometry">
            <mxPoint as="offset" />
          </mxGeometry>
        </mxCell>
        <mxCell id="xmToaTjJYsY2-gtkwXPX-13" value="" style="shape=mxgraph.cisco.switches.workgroup_switch;sketch=0;html=1;pointerEvents=1;dashed=0;fillColor=#036897;strokeColor=#ffffff;strokeWidth=2;verticalLabelPosition=bottom;verticalAlign=top;align=center;outlineConnect=0;" vertex="1" parent="1">
          <mxGeometry x="900" y="880" width="60" height="30" as="geometry" />
        </mxCell>
        <mxCell id="xmToaTjJYsY2-gtkwXPX-27" style="edgeStyle=orthogonalEdgeStyle;rounded=0;orthogonalLoop=1;jettySize=auto;html=1;exitX=0.5;exitY=0;exitDx=0;exitDy=0;exitPerimeter=0;" edge="1" parent="1" source="xmToaTjJYsY2-gtkwXPX-15" target="xmToaTjJYsY2-gtkwXPX-1">
          <mxGeometry relative="1" as="geometry">
            <Array as="points">
              <mxPoint x="40" y="930" />
              <mxPoint x="40" y="930" />
            </Array>
          </mxGeometry>
        </mxCell>
        <mxCell id="xmToaTjJYsY2-gtkwXPX-15" value="" style="shape=mxgraph.cisco.computers_and_peripherals.workstation;sketch=0;html=1;pointerEvents=1;dashed=0;fillColor=#036897;strokeColor=#ffffff;strokeWidth=2;verticalLabelPosition=bottom;verticalAlign=top;align=center;outlineConnect=0;" vertex="1" parent="1">
          <mxGeometry x="20" y="980" width="40" height="30" as="geometry" />
        </mxCell>
        <mxCell id="xmToaTjJYsY2-gtkwXPX-28" style="edgeStyle=orthogonalEdgeStyle;rounded=0;orthogonalLoop=1;jettySize=auto;html=1;exitX=0.5;exitY=0;exitDx=0;exitDy=0;exitPerimeter=0;" edge="1" parent="1" source="xmToaTjJYsY2-gtkwXPX-17" target="xmToaTjJYsY2-gtkwXPX-9">
          <mxGeometry relative="1" as="geometry" />
        </mxCell>
        <mxCell id="xmToaTjJYsY2-gtkwXPX-17" value="" style="shape=mxgraph.cisco.computers_and_peripherals.workstation;sketch=0;html=1;pointerEvents=1;dashed=0;fillColor=#036897;strokeColor=#ffffff;strokeWidth=2;verticalLabelPosition=bottom;verticalAlign=top;align=center;outlineConnect=0;" vertex="1" parent="1">
          <mxGeometry x="130" y="980" width="40" height="30" as="geometry" />
        </mxCell>
        <mxCell id="xmToaTjJYsY2-gtkwXPX-18" value="" style="shape=mxgraph.cisco.computers_and_peripherals.workstation;sketch=0;html=1;pointerEvents=1;dashed=0;fillColor=#036897;strokeColor=#ffffff;strokeWidth=2;verticalLabelPosition=bottom;verticalAlign=top;align=center;outlineConnect=0;" vertex="1" parent="1">
          <mxGeometry x="260" y="980" width="40" height="30" as="geometry" />
        </mxCell>
        <mxCell id="xmToaTjJYsY2-gtkwXPX-20" value="" style="shape=mxgraph.cisco.computers_and_peripherals.workstation;sketch=0;html=1;pointerEvents=1;dashed=0;fillColor=#036897;strokeColor=#ffffff;strokeWidth=2;verticalLabelPosition=bottom;verticalAlign=top;align=center;outlineConnect=0;" vertex="1" parent="1">
          <mxGeometry x="480" y="980" width="40" height="30" as="geometry" />
        </mxCell>
        <mxCell id="xmToaTjJYsY2-gtkwXPX-21" value="" style="shape=mxgraph.cisco.computers_and_peripherals.workstation;sketch=0;html=1;pointerEvents=1;dashed=0;fillColor=#036897;strokeColor=#ffffff;strokeWidth=2;verticalLabelPosition=bottom;verticalAlign=top;align=center;outlineConnect=0;" vertex="1" parent="1">
          <mxGeometry x="620" y="980" width="40" height="30" as="geometry" />
        </mxCell>
        <mxCell id="xmToaTjJYsY2-gtkwXPX-22" value="" style="shape=mxgraph.cisco.computers_and_peripherals.workstation;sketch=0;html=1;pointerEvents=1;dashed=0;fillColor=#036897;strokeColor=#ffffff;strokeWidth=2;verticalLabelPosition=bottom;verticalAlign=top;align=center;outlineConnect=0;" vertex="1" parent="1">
          <mxGeometry x="777" y="980" width="40" height="30" as="geometry" />
        </mxCell>
        <mxCell id="xmToaTjJYsY2-gtkwXPX-23" value="" style="shape=mxgraph.cisco.computers_and_peripherals.workstation;sketch=0;html=1;pointerEvents=1;dashed=0;fillColor=#036897;strokeColor=#ffffff;strokeWidth=2;verticalLabelPosition=bottom;verticalAlign=top;align=center;outlineConnect=0;" vertex="1" parent="1">
          <mxGeometry x="910" y="980" width="40" height="30" as="geometry" />
        </mxCell>
        <mxCell id="xmToaTjJYsY2-gtkwXPX-30" style="edgeStyle=orthogonalEdgeStyle;rounded=0;orthogonalLoop=1;jettySize=auto;html=1;exitX=0.5;exitY=0;exitDx=0;exitDy=0;exitPerimeter=0;" edge="1" parent="1" source="xmToaTjJYsY2-gtkwXPX-19" target="xmToaTjJYsY2-gtkwXPX-3">
          <mxGeometry relative="1" as="geometry" />
        </mxCell>
        <mxCell id="xmToaTjJYsY2-gtkwXPX-19" value="" style="shape=mxgraph.cisco.computers_and_peripherals.workstation;sketch=0;html=1;pointerEvents=1;dashed=0;fillColor=#036897;strokeColor=#ffffff;strokeWidth=2;verticalLabelPosition=bottom;verticalAlign=top;align=center;outlineConnect=0;" vertex="1" parent="1">
          <mxGeometry x="370" y="980" width="40" height="30" as="geometry" />
        </mxCell>
        <mxCell id="xmToaTjJYsY2-gtkwXPX-29" style="edgeStyle=orthogonalEdgeStyle;rounded=0;orthogonalLoop=1;jettySize=auto;html=1;exitX=0.5;exitY=0;exitDx=0;exitDy=0;exitPerimeter=0;entryX=0.5;entryY=0.98;entryDx=0;entryDy=0;entryPerimeter=0;" edge="1" parent="1" source="xmToaTjJYsY2-gtkwXPX-18" target="xmToaTjJYsY2-gtkwXPX-2">
          <mxGeometry relative="1" as="geometry" />
        </mxCell>
        <mxCell id="xmToaTjJYsY2-gtkwXPX-31" style="edgeStyle=orthogonalEdgeStyle;rounded=0;orthogonalLoop=1;jettySize=auto;html=1;exitX=0.5;exitY=0;exitDx=0;exitDy=0;exitPerimeter=0;entryX=0.5;entryY=0.98;entryDx=0;entryDy=0;entryPerimeter=0;" edge="1" parent="1" source="xmToaTjJYsY2-gtkwXPX-20" target="xmToaTjJYsY2-gtkwXPX-4">
          <mxGeometry relative="1" as="geometry" />
        </mxCell>
        <mxCell id="xmToaTjJYsY2-gtkwXPX-32" style="edgeStyle=orthogonalEdgeStyle;rounded=0;orthogonalLoop=1;jettySize=auto;html=1;exitX=0.5;exitY=0;exitDx=0;exitDy=0;exitPerimeter=0;entryX=0.5;entryY=0.98;entryDx=0;entryDy=0;entryPerimeter=0;" edge="1" parent="1" source="xmToaTjJYsY2-gtkwXPX-21" target="xmToaTjJYsY2-gtkwXPX-5">
          <mxGeometry relative="1" as="geometry" />
        </mxCell>
        <mxCell id="xmToaTjJYsY2-gtkwXPX-33" style="edgeStyle=orthogonalEdgeStyle;rounded=0;orthogonalLoop=1;jettySize=auto;html=1;exitX=0.5;exitY=0;exitDx=0;exitDy=0;exitPerimeter=0;entryX=0.667;entryY=0.667;entryDx=0;entryDy=0;entryPerimeter=0;" edge="1" parent="1" source="xmToaTjJYsY2-gtkwXPX-22" target="xmToaTjJYsY2-gtkwXPX-6">
          <mxGeometry relative="1" as="geometry" />
        </mxCell>
        <mxCell id="xmToaTjJYsY2-gtkwXPX-34" style="edgeStyle=orthogonalEdgeStyle;rounded=0;orthogonalLoop=1;jettySize=auto;html=1;exitX=0.5;exitY=0;exitDx=0;exitDy=0;exitPerimeter=0;entryX=0.5;entryY=0.98;entryDx=0;entryDy=0;entryPerimeter=0;" edge="1" parent="1" source="xmToaTjJYsY2-gtkwXPX-23" target="xmToaTjJYsY2-gtkwXPX-13">
          <mxGeometry relative="1" as="geometry" />
        </mxCell>
        <mxCell id="xmToaTjJYsY2-gtkwXPX-35" value="" style="shape=mxgraph.cisco.switches.layer_3_switch;sketch=0;html=1;pointerEvents=1;dashed=0;fillColor=#036897;strokeColor=#ffffff;strokeWidth=2;verticalLabelPosition=bottom;verticalAlign=top;align=center;outlineConnect=0;" vertex="1" parent="1">
          <mxGeometry x="200" y="620" width="50" height="40" as="geometry" />
        </mxCell>
        <mxCell id="xmToaTjJYsY2-gtkwXPX-37" value="" style="shape=mxgraph.cisco.switches.layer_3_switch;sketch=0;html=1;pointerEvents=1;dashed=0;fillColor=#036897;strokeColor=#ffffff;strokeWidth=2;verticalLabelPosition=bottom;verticalAlign=top;align=center;outlineConnect=0;" vertex="1" parent="1">
          <mxGeometry x="650" y="610" width="50" height="40" as="geometry" />
        </mxCell>
        <mxCell id="xmToaTjJYsY2-gtkwXPX-38" style="edgeStyle=orthogonalEdgeStyle;rounded=0;orthogonalLoop=1;jettySize=auto;html=1;exitX=0.5;exitY=0;exitDx=0;exitDy=0;exitPerimeter=0;entryX=0;entryY=0.5;entryDx=0;entryDy=0;entryPerimeter=0;" edge="1" parent="1" source="xmToaTjJYsY2-gtkwXPX-1" target="xmToaTjJYsY2-gtkwXPX-35">
          <mxGeometry relative="1" as="geometry">
            <Array as="points">
              <mxPoint x="50" y="630" />
              <mxPoint x="200" y="630" />
            </Array>
          </mxGeometry>
        </mxCell>
        <mxCell id="xmToaTjJYsY2-gtkwXPX-68" value="SW1" style="edgeLabel;html=1;align=center;verticalAlign=middle;resizable=0;points=[];" vertex="1" connectable="0" parent="xmToaTjJYsY2-gtkwXPX-38">
          <mxGeometry x="0.4517" y="3" relative="1" as="geometry">
            <mxPoint as="offset" />
          </mxGeometry>
        </mxCell>
        <mxCell id="xmToaTjJYsY2-gtkwXPX-40" style="edgeStyle=orthogonalEdgeStyle;rounded=0;orthogonalLoop=1;jettySize=auto;html=1;exitX=0.5;exitY=0;exitDx=0;exitDy=0;exitPerimeter=0;entryX=0.5;entryY=1;entryDx=0;entryDy=0;entryPerimeter=0;" edge="1" parent="1" source="xmToaTjJYsY2-gtkwXPX-2" target="xmToaTjJYsY2-gtkwXPX-35">
          <mxGeometry relative="1" as="geometry">
            <Array as="points">
              <mxPoint x="280" y="770" />
              <mxPoint x="210" y="770" />
              <mxPoint x="210" y="660" />
            </Array>
          </mxGeometry>
        </mxCell>
        <mxCell id="xmToaTjJYsY2-gtkwXPX-42" value="SW5" style="edgeStyle=orthogonalEdgeStyle;rounded=0;orthogonalLoop=1;jettySize=auto;html=1;exitX=0.5;exitY=0;exitDx=0;exitDy=0;exitPerimeter=0;entryX=0.95;entryY=0.94;entryDx=0;entryDy=0;entryPerimeter=0;" edge="1" parent="1" source="xmToaTjJYsY2-gtkwXPX-4" target="xmToaTjJYsY2-gtkwXPX-35">
          <mxGeometry relative="1" as="geometry">
            <Array as="points">
              <mxPoint x="500" y="770" />
              <mxPoint x="280" y="770" />
              <mxPoint x="280" y="658" />
            </Array>
          </mxGeometry>
        </mxCell>
        <mxCell id="xmToaTjJYsY2-gtkwXPX-69" value="SW3" style="edgeLabel;html=1;align=center;verticalAlign=middle;resizable=0;points=[];" vertex="1" connectable="0" parent="xmToaTjJYsY2-gtkwXPX-42">
          <mxGeometry x="0.8235" y="-3" relative="1" as="geometry">
            <mxPoint as="offset" />
          </mxGeometry>
        </mxCell>
        <mxCell id="xmToaTjJYsY2-gtkwXPX-43" style="edgeStyle=orthogonalEdgeStyle;rounded=0;orthogonalLoop=1;jettySize=auto;html=1;exitX=0.5;exitY=0;exitDx=0;exitDy=0;exitPerimeter=0;entryX=0.36;entryY=1.04;entryDx=0;entryDy=0;entryPerimeter=0;" edge="1" parent="1" source="xmToaTjJYsY2-gtkwXPX-5" target="xmToaTjJYsY2-gtkwXPX-35">
          <mxGeometry relative="1" as="geometry">
            <Array as="points">
              <mxPoint x="640" y="800" />
              <mxPoint x="170" y="800" />
              <mxPoint x="170" y="662" />
            </Array>
          </mxGeometry>
        </mxCell>
        <mxCell id="xmToaTjJYsY2-gtkwXPX-72" value="SW6" style="edgeLabel;html=1;align=center;verticalAlign=middle;resizable=0;points=[];" vertex="1" connectable="0" parent="xmToaTjJYsY2-gtkwXPX-43">
          <mxGeometry x="0.7681" relative="1" as="geometry">
            <mxPoint as="offset" />
          </mxGeometry>
        </mxCell>
        <mxCell id="xmToaTjJYsY2-gtkwXPX-44" style="edgeStyle=orthogonalEdgeStyle;rounded=0;orthogonalLoop=1;jettySize=auto;html=1;exitX=0.5;exitY=0;exitDx=0;exitDy=0;exitPerimeter=0;entryX=1;entryY=0.5;entryDx=0;entryDy=0;entryPerimeter=0;" edge="1" parent="1">
          <mxGeometry relative="1" as="geometry">
            <mxPoint x="787" y="890" as="sourcePoint" />
            <mxPoint x="250" y="650" as="targetPoint" />
            <Array as="points">
              <mxPoint x="787" y="700" />
              <mxPoint x="250" y="700" />
            </Array>
          </mxGeometry>
        </mxCell>
        <mxCell id="xmToaTjJYsY2-gtkwXPX-45" value="SW7" style="edgeLabel;html=1;align=center;verticalAlign=middle;resizable=0;points=[];" vertex="1" connectable="0" parent="xmToaTjJYsY2-gtkwXPX-44">
          <mxGeometry x="0.7575" y="-1" relative="1" as="geometry">
            <mxPoint as="offset" />
          </mxGeometry>
        </mxCell>
        <mxCell id="xmToaTjJYsY2-gtkwXPX-46" style="edgeStyle=orthogonalEdgeStyle;rounded=0;orthogonalLoop=1;jettySize=auto;html=1;entryX=1;entryY=0.5;entryDx=0;entryDy=0;entryPerimeter=0;" edge="1" parent="1" source="xmToaTjJYsY2-gtkwXPX-13" target="xmToaTjJYsY2-gtkwXPX-35">
          <mxGeometry relative="1" as="geometry">
            <Array as="points">
              <mxPoint x="930" y="850" />
              <mxPoint x="575" y="850" />
              <mxPoint x="575" y="640" />
            </Array>
          </mxGeometry>
        </mxCell>
        <mxCell id="xmToaTjJYsY2-gtkwXPX-65" value="SW8" style="edgeLabel;html=1;align=center;verticalAlign=middle;resizable=0;points=[];" vertex="1" connectable="0" parent="xmToaTjJYsY2-gtkwXPX-46">
          <mxGeometry x="0.0739" y="1" relative="1" as="geometry">
            <mxPoint as="offset" />
          </mxGeometry>
        </mxCell>
        <mxCell id="xmToaTjJYsY2-gtkwXPX-47" style="edgeStyle=orthogonalEdgeStyle;rounded=0;orthogonalLoop=1;jettySize=auto;html=1;exitX=1;exitY=0;exitDx=0;exitDy=0;exitPerimeter=0;entryX=0;entryY=0.5;entryDx=0;entryDy=0;entryPerimeter=0;" edge="1" parent="1" source="xmToaTjJYsY2-gtkwXPX-1" target="xmToaTjJYsY2-gtkwXPX-37">
          <mxGeometry relative="1" as="geometry">
            <Array as="points">
              <mxPoint x="80" y="680" />
              <mxPoint x="650" y="680" />
            </Array>
          </mxGeometry>
        </mxCell>
        <mxCell id="xmToaTjJYsY2-gtkwXPX-67" value="SW1" style="edgeLabel;html=1;align=center;verticalAlign=middle;resizable=0;points=[];" vertex="1" connectable="0" parent="xmToaTjJYsY2-gtkwXPX-47">
          <mxGeometry x="0.2502" relative="1" as="geometry">
            <mxPoint as="offset" />
          </mxGeometry>
        </mxCell>
        <mxCell id="xmToaTjJYsY2-gtkwXPX-49" style="edgeStyle=orthogonalEdgeStyle;rounded=0;orthogonalLoop=1;jettySize=auto;html=1;exitX=1;exitY=0;exitDx=0;exitDy=0;exitPerimeter=0;entryX=0;entryY=0.5;entryDx=0;entryDy=0;entryPerimeter=0;" edge="1" parent="1" source="xmToaTjJYsY2-gtkwXPX-2" target="xmToaTjJYsY2-gtkwXPX-37">
          <mxGeometry relative="1" as="geometry">
            <Array as="points">
              <mxPoint x="310" y="610" />
              <mxPoint x="650" y="610" />
            </Array>
          </mxGeometry>
        </mxCell>
        <mxCell id="xmToaTjJYsY2-gtkwXPX-50" value="SW4" style="edgeStyle=orthogonalEdgeStyle;rounded=0;orthogonalLoop=1;jettySize=auto;html=1;exitX=0.5;exitY=0;exitDx=0;exitDy=0;exitPerimeter=0;entryX=0;entryY=0.5;entryDx=0;entryDy=0;entryPerimeter=0;" edge="1" parent="1" source="xmToaTjJYsY2-gtkwXPX-3" target="xmToaTjJYsY2-gtkwXPX-37">
          <mxGeometry relative="1" as="geometry">
            <Array as="points">
              <mxPoint x="420" y="880" />
              <mxPoint x="420" y="630" />
            </Array>
          </mxGeometry>
        </mxCell>
        <mxCell id="xmToaTjJYsY2-gtkwXPX-51" style="edgeStyle=orthogonalEdgeStyle;rounded=0;orthogonalLoop=1;jettySize=auto;html=1;exitX=1;exitY=0;exitDx=0;exitDy=0;exitPerimeter=0;entryX=0.816;entryY=0.95;entryDx=0;entryDy=0;entryPerimeter=0;" edge="1" parent="1" source="xmToaTjJYsY2-gtkwXPX-4" target="xmToaTjJYsY2-gtkwXPX-37">
          <mxGeometry relative="1" as="geometry" />
        </mxCell>
        <mxCell id="xmToaTjJYsY2-gtkwXPX-52" style="edgeStyle=orthogonalEdgeStyle;rounded=0;orthogonalLoop=1;jettySize=auto;html=1;exitX=1;exitY=0;exitDx=0;exitDy=0;exitPerimeter=0;entryX=1;entryY=0.5;entryDx=0;entryDy=0;entryPerimeter=0;" edge="1" parent="1" source="xmToaTjJYsY2-gtkwXPX-5" target="xmToaTjJYsY2-gtkwXPX-37">
          <mxGeometry relative="1" as="geometry">
            <Array as="points">
              <mxPoint x="670" y="780" />
              <mxPoint x="720" y="780" />
              <mxPoint x="720" y="630" />
            </Array>
          </mxGeometry>
        </mxCell>
        <mxCell id="xmToaTjJYsY2-gtkwXPX-71" value="SW 6" style="edgeLabel;html=1;align=center;verticalAlign=middle;resizable=0;points=[];" vertex="1" connectable="0" parent="xmToaTjJYsY2-gtkwXPX-52">
          <mxGeometry x="0.6938" y="-1" relative="1" as="geometry">
            <mxPoint as="offset" />
          </mxGeometry>
        </mxCell>
        <mxCell id="xmToaTjJYsY2-gtkwXPX-53" style="edgeStyle=orthogonalEdgeStyle;rounded=0;orthogonalLoop=1;jettySize=auto;html=1;exitX=1;exitY=0;exitDx=0;exitDy=0;exitPerimeter=0;entryX=1;entryY=0.5;entryDx=0;entryDy=0;entryPerimeter=0;" edge="1" parent="1" source="xmToaTjJYsY2-gtkwXPX-6" target="xmToaTjJYsY2-gtkwXPX-37">
          <mxGeometry relative="1" as="geometry">
            <Array as="points">
              <mxPoint x="817" y="620" />
              <mxPoint x="700" y="620" />
            </Array>
          </mxGeometry>
        </mxCell>
        <mxCell id="xmToaTjJYsY2-gtkwXPX-55" value="SW1" style="text;html=1;align=center;verticalAlign=middle;resizable=0;points=[];autosize=1;strokeColor=none;fillColor=none;" vertex="1" parent="1">
          <mxGeometry x="-5" y="858" width="50" height="30" as="geometry" />
        </mxCell>
        <mxCell id="xmToaTjJYsY2-gtkwXPX-56" value="SW2" style="text;html=1;align=center;verticalAlign=middle;resizable=0;points=[];autosize=1;strokeColor=none;fillColor=none;" vertex="1" parent="1">
          <mxGeometry x="155" y="898" width="50" height="30" as="geometry" />
        </mxCell>
        <mxCell id="xmToaTjJYsY2-gtkwXPX-57" value="SW3" style="text;html=1;align=center;verticalAlign=middle;resizable=0;points=[];autosize=1;strokeColor=none;fillColor=none;" vertex="1" parent="1">
          <mxGeometry x="275" y="898" width="50" height="30" as="geometry" />
        </mxCell>
        <mxCell id="xmToaTjJYsY2-gtkwXPX-58" value="SW4" style="text;html=1;align=center;verticalAlign=middle;resizable=0;points=[];autosize=1;strokeColor=none;fillColor=none;" vertex="1" parent="1">
          <mxGeometry x="385" y="918" width="50" height="30" as="geometry" />
        </mxCell>
        <mxCell id="xmToaTjJYsY2-gtkwXPX-59" value="SW5" style="text;html=1;align=center;verticalAlign=middle;resizable=0;points=[];autosize=1;strokeColor=none;fillColor=none;" vertex="1" parent="1">
          <mxGeometry x="505" y="918" width="50" height="30" as="geometry" />
        </mxCell>
        <mxCell id="xmToaTjJYsY2-gtkwXPX-60" value="SW6" style="text;html=1;align=center;verticalAlign=middle;resizable=0;points=[];autosize=1;strokeColor=none;fillColor=none;" vertex="1" parent="1">
          <mxGeometry x="645" y="908" width="50" height="30" as="geometry" />
        </mxCell>
        <mxCell id="xmToaTjJYsY2-gtkwXPX-61" value="SW7" style="text;html=1;align=center;verticalAlign=middle;resizable=0;points=[];autosize=1;strokeColor=none;fillColor=none;" vertex="1" parent="1">
          <mxGeometry x="745" y="908" width="50" height="30" as="geometry" />
        </mxCell>
        <mxCell id="xmToaTjJYsY2-gtkwXPX-62" value="SW8" style="text;html=1;align=center;verticalAlign=middle;resizable=0;points=[];autosize=1;strokeColor=none;fillColor=none;" vertex="1" parent="1">
          <mxGeometry x="875" y="908" width="50" height="30" as="geometry" />
        </mxCell>
        <mxCell id="xmToaTjJYsY2-gtkwXPX-70" value="SW3" style="text;html=1;align=center;verticalAlign=middle;resizable=0;points=[];autosize=1;strokeColor=none;fillColor=none;" vertex="1" parent="1">
          <mxGeometry x="395" y="588" width="50" height="30" as="geometry" />
        </mxCell>
        <mxCell id="xmToaTjJYsY2-gtkwXPX-75" value="" style="shape=mxgraph.cisco.servers.fileserver;sketch=0;html=1;pointerEvents=1;dashed=0;fillColor=#036897;strokeColor=#ffffff;strokeWidth=2;verticalLabelPosition=bottom;verticalAlign=top;align=center;outlineConnect=0;" vertex="1" parent="1">
          <mxGeometry x="980" y="990" width="43" height="50" as="geometry" />
        </mxCell>
        <mxCell id="xmToaTjJYsY2-gtkwXPX-76" value="" style="shape=mxgraph.cisco.servers.fileserver;sketch=0;html=1;pointerEvents=1;dashed=0;fillColor=#036897;strokeColor=#ffffff;strokeWidth=2;verticalLabelPosition=bottom;verticalAlign=top;align=center;outlineConnect=0;" vertex="1" parent="1">
          <mxGeometry x="1110" y="970" width="43" height="50" as="geometry" />
        </mxCell>
        <mxCell id="xmToaTjJYsY2-gtkwXPX-77" value="" style="shape=mxgraph.cisco.servers.fileserver;sketch=0;html=1;pointerEvents=1;dashed=0;fillColor=#036897;strokeColor=#ffffff;strokeWidth=2;verticalLabelPosition=bottom;verticalAlign=top;align=center;outlineConnect=0;" vertex="1" parent="1">
          <mxGeometry x="1060" y="838" width="43" height="50" as="geometry" />
        </mxCell>
        <mxCell id="xmToaTjJYsY2-gtkwXPX-78" style="edgeStyle=orthogonalEdgeStyle;rounded=0;orthogonalLoop=1;jettySize=auto;html=1;exitX=0;exitY=0.5;exitDx=0;exitDy=0;exitPerimeter=0;entryX=0.98;entryY=0.5;entryDx=0;entryDy=0;entryPerimeter=0;" edge="1" parent="1" source="xmToaTjJYsY2-gtkwXPX-77" target="xmToaTjJYsY2-gtkwXPX-13">
          <mxGeometry relative="1" as="geometry">
            <Array as="points">
              <mxPoint x="1060" y="870" />
              <mxPoint x="959" y="870" />
            </Array>
          </mxGeometry>
        </mxCell>
        <mxCell id="xmToaTjJYsY2-gtkwXPX-81" style="edgeStyle=orthogonalEdgeStyle;rounded=0;orthogonalLoop=1;jettySize=auto;html=1;exitX=0.13;exitY=0.08;exitDx=0;exitDy=0;exitPerimeter=0;entryX=0.863;entryY=1.04;entryDx=0;entryDy=0;entryPerimeter=0;" edge="1" parent="1" source="xmToaTjJYsY2-gtkwXPX-75" target="xmToaTjJYsY2-gtkwXPX-13">
          <mxGeometry relative="1" as="geometry" />
        </mxCell>
        <mxCell id="xmToaTjJYsY2-gtkwXPX-82" style="edgeStyle=orthogonalEdgeStyle;rounded=0;orthogonalLoop=1;jettySize=auto;html=1;exitX=0.13;exitY=0.08;exitDx=0;exitDy=0;exitPerimeter=0;entryX=0.87;entryY=0.74;entryDx=0;entryDy=0;entryPerimeter=0;" edge="1" parent="1" source="xmToaTjJYsY2-gtkwXPX-76" target="xmToaTjJYsY2-gtkwXPX-13">
          <mxGeometry relative="1" as="geometry">
            <Array as="points">
              <mxPoint x="1076" y="974" />
              <mxPoint x="1076" y="920" />
              <mxPoint x="952" y="920" />
            </Array>
          </mxGeometry>
        </mxCell>
        <mxCell id="xmToaTjJYsY2-gtkwXPX-83" value="FTP server" style="text;html=1;align=center;verticalAlign=middle;resizable=0;points=[];autosize=1;strokeColor=none;fillColor=none;" vertex="1" parent="1">
          <mxGeometry x="1041.5" y="800" width="80" height="30" as="geometry" />
        </mxCell>
        <mxCell id="xmToaTjJYsY2-gtkwXPX-84" value="WEB server" style="text;html=1;align=center;verticalAlign=middle;resizable=0;points=[];autosize=1;strokeColor=none;fillColor=none;" vertex="1" parent="1">
          <mxGeometry x="1086.5" y="1020" width="90" height="30" as="geometry" />
        </mxCell>
        <mxCell id="xmToaTjJYsY2-gtkwXPX-85" value="Email server" style="text;html=1;align=center;verticalAlign=middle;resizable=0;points=[];autosize=1;strokeColor=none;fillColor=none;" vertex="1" parent="1">
          <mxGeometry x="955" y="1038" width="90" height="30" as="geometry" />
        </mxCell>
        <mxCell id="xmToaTjJYsY2-gtkwXPX-86" value="" style="shape=mxgraph.cisco.servers.fileserver;sketch=0;html=1;pointerEvents=1;dashed=0;fillColor=#036897;strokeColor=#ffffff;strokeWidth=2;verticalLabelPosition=bottom;verticalAlign=top;align=center;outlineConnect=0;" vertex="1" parent="1">
          <mxGeometry x="1160" y="870" width="43" height="50" as="geometry" />
        </mxCell>
        <mxCell id="xmToaTjJYsY2-gtkwXPX-87" style="edgeStyle=orthogonalEdgeStyle;rounded=0;orthogonalLoop=1;jettySize=auto;html=1;exitX=0;exitY=0.5;exitDx=0;exitDy=0;exitPerimeter=0;entryX=0.98;entryY=0.5;entryDx=0;entryDy=0;entryPerimeter=0;" edge="1" parent="1" source="xmToaTjJYsY2-gtkwXPX-86" target="xmToaTjJYsY2-gtkwXPX-13">
          <mxGeometry relative="1" as="geometry" />
        </mxCell>
        <mxCell id="xmToaTjJYsY2-gtkwXPX-88" value="DNS server" style="text;html=1;align=center;verticalAlign=middle;resizable=0;points=[];autosize=1;strokeColor=none;fillColor=none;" vertex="1" parent="1">
          <mxGeometry x="1135" y="838" width="90" height="30" as="geometry" />
        </mxCell>
        <mxCell id="xmToaTjJYsY2-gtkwXPX-89" value="" style="shape=mxgraph.cisco.routers.router;sketch=0;html=1;pointerEvents=1;dashed=0;fillColor=#036897;strokeColor=#ffffff;strokeWidth=2;verticalLabelPosition=bottom;verticalAlign=top;align=center;outlineConnect=0;" vertex="1" parent="1">
          <mxGeometry x="385" y="390" width="65" height="40" as="geometry" />
        </mxCell>
        <mxCell id="xmToaTjJYsY2-gtkwXPX-90" style="edgeStyle=orthogonalEdgeStyle;rounded=0;orthogonalLoop=1;jettySize=auto;html=1;exitX=0.5;exitY=0;exitDx=0;exitDy=0;exitPerimeter=0;entryX=0;entryY=0.5;entryDx=0;entryDy=0;entryPerimeter=0;" edge="1" parent="1" source="xmToaTjJYsY2-gtkwXPX-35" target="xmToaTjJYsY2-gtkwXPX-89">
          <mxGeometry relative="1" as="geometry" />
        </mxCell>
        <mxCell id="xmToaTjJYsY2-gtkwXPX-91" style="edgeStyle=orthogonalEdgeStyle;rounded=0;orthogonalLoop=1;jettySize=auto;html=1;exitX=0.5;exitY=0;exitDx=0;exitDy=0;exitPerimeter=0;entryX=0.5;entryY=1;entryDx=0;entryDy=0;entryPerimeter=0;" edge="1" parent="1" source="xmToaTjJYsY2-gtkwXPX-37" target="xmToaTjJYsY2-gtkwXPX-89">
          <mxGeometry relative="1" as="geometry" />
        </mxCell>
        <mxCell id="xmToaTjJYsY2-gtkwXPX-92" value="" style="shape=mxgraph.cisco.routers.router;sketch=0;html=1;pointerEvents=1;dashed=0;fillColor=#036897;strokeColor=#ffffff;strokeWidth=2;verticalLabelPosition=bottom;verticalAlign=top;align=center;outlineConnect=0;" vertex="1" parent="1">
          <mxGeometry x="1070" y="390" width="65" height="40" as="geometry" />
        </mxCell>
        <mxCell id="xmToaTjJYsY2-gtkwXPX-93" value="" style="shape=mxgraph.cisco.switches.layer_3_switch;sketch=0;html=1;pointerEvents=1;dashed=0;fillColor=#036897;strokeColor=#ffffff;strokeWidth=2;verticalLabelPosition=bottom;verticalAlign=top;align=center;outlineConnect=0;" vertex="1" parent="1">
          <mxGeometry x="1360" y="378" width="60" height="52" as="geometry" />
        </mxCell>
        <mxCell id="xmToaTjJYsY2-gtkwXPX-98" style="edgeStyle=orthogonalEdgeStyle;rounded=0;orthogonalLoop=1;jettySize=auto;html=1;exitX=0.5;exitY=0.98;exitDx=0;exitDy=0;exitPerimeter=0;" edge="1" parent="1" source="xmToaTjJYsY2-gtkwXPX-94" target="xmToaTjJYsY2-gtkwXPX-93">
          <mxGeometry relative="1" as="geometry" />
        </mxCell>
        <mxCell id="xmToaTjJYsY2-gtkwXPX-94" value="" style="shape=mxgraph.cisco.switches.workgroup_switch;sketch=0;html=1;pointerEvents=1;dashed=0;fillColor=#036897;strokeColor=#ffffff;strokeWidth=2;verticalLabelPosition=bottom;verticalAlign=top;align=center;outlineConnect=0;" vertex="1" parent="1">
          <mxGeometry x="1540" y="470" width="60" height="30" as="geometry" />
        </mxCell>
        <mxCell id="xmToaTjJYsY2-gtkwXPX-97" style="edgeStyle=orthogonalEdgeStyle;rounded=0;orthogonalLoop=1;jettySize=auto;html=1;exitX=0.16;exitY=0.23;exitDx=0;exitDy=0;exitPerimeter=0;" edge="1" parent="1" source="xmToaTjJYsY2-gtkwXPX-96" target="xmToaTjJYsY2-gtkwXPX-93">
          <mxGeometry relative="1" as="geometry" />
        </mxCell>
        <mxCell id="xmToaTjJYsY2-gtkwXPX-96" value="" style="shape=mxgraph.cisco.switches.workgroup_switch;sketch=0;html=1;pointerEvents=1;dashed=0;fillColor=#036897;strokeColor=#ffffff;strokeWidth=2;verticalLabelPosition=bottom;verticalAlign=top;align=center;outlineConnect=0;" vertex="1" parent="1">
          <mxGeometry x="1540" y="300" width="60" height="30" as="geometry" />
        </mxCell>
        <mxCell id="xmToaTjJYsY2-gtkwXPX-99" style="edgeStyle=orthogonalEdgeStyle;rounded=0;orthogonalLoop=1;jettySize=auto;html=1;exitX=0;exitY=0.5;exitDx=0;exitDy=0;exitPerimeter=0;entryX=1;entryY=0.5;entryDx=0;entryDy=0;entryPerimeter=0;" edge="1" parent="1" source="xmToaTjJYsY2-gtkwXPX-93" target="xmToaTjJYsY2-gtkwXPX-92">
          <mxGeometry relative="1" as="geometry">
            <Array as="points">
              <mxPoint x="1135" y="404" />
            </Array>
          </mxGeometry>
        </mxCell>
        <mxCell id="xmToaTjJYsY2-gtkwXPX-100" value="" style="shape=mxgraph.cisco.computers_and_peripherals.workstation;sketch=0;html=1;pointerEvents=1;dashed=0;fillColor=#036897;strokeColor=#ffffff;strokeWidth=2;verticalLabelPosition=bottom;verticalAlign=top;align=center;outlineConnect=0;" vertex="1" parent="1">
          <mxGeometry x="1710" y="470" width="40" height="30" as="geometry" />
        </mxCell>
        <mxCell id="xmToaTjJYsY2-gtkwXPX-101" value="" style="shape=mxgraph.cisco.computers_and_peripherals.workstation;sketch=0;html=1;pointerEvents=1;dashed=0;fillColor=#036897;strokeColor=#ffffff;strokeWidth=2;verticalLabelPosition=bottom;verticalAlign=top;align=center;outlineConnect=0;" vertex="1" parent="1">
          <mxGeometry x="1710" y="300" width="40" height="30" as="geometry" />
        </mxCell>
        <mxCell id="xmToaTjJYsY2-gtkwXPX-102" style="edgeStyle=orthogonalEdgeStyle;rounded=0;orthogonalLoop=1;jettySize=auto;html=1;exitX=0.11;exitY=0.5;exitDx=0;exitDy=0;exitPerimeter=0;entryX=0.98;entryY=0.5;entryDx=0;entryDy=0;entryPerimeter=0;" edge="1" parent="1" source="xmToaTjJYsY2-gtkwXPX-100" target="xmToaTjJYsY2-gtkwXPX-94">
          <mxGeometry relative="1" as="geometry" />
        </mxCell>
        <mxCell id="xmToaTjJYsY2-gtkwXPX-103" style="edgeStyle=orthogonalEdgeStyle;rounded=0;orthogonalLoop=1;jettySize=auto;html=1;exitX=0.11;exitY=0.5;exitDx=0;exitDy=0;exitPerimeter=0;entryX=0.98;entryY=0.5;entryDx=0;entryDy=0;entryPerimeter=0;" edge="1" parent="1" source="xmToaTjJYsY2-gtkwXPX-101" target="xmToaTjJYsY2-gtkwXPX-96">
          <mxGeometry relative="1" as="geometry" />
        </mxCell>
        <mxCell id="xmToaTjJYsY2-gtkwXPX-104" style="edgeStyle=orthogonalEdgeStyle;rounded=0;orthogonalLoop=1;jettySize=auto;html=1;exitX=0;exitY=0.5;exitDx=0;exitDy=0;exitPerimeter=0;entryX=1;entryY=0.5;entryDx=0;entryDy=0;entryPerimeter=0;" edge="1" parent="1" source="xmToaTjJYsY2-gtkwXPX-92" target="xmToaTjJYsY2-gtkwXPX-89">
          <mxGeometry relative="1" as="geometry">
            <Array as="points">
              <mxPoint x="780" y="410" />
              <mxPoint x="780" y="410" />
            </Array>
          </mxGeometry>
        </mxCell>
        <mxCell id="xmToaTjJYsY2-gtkwXPX-120" style="edgeStyle=orthogonalEdgeStyle;rounded=0;orthogonalLoop=1;jettySize=auto;html=1;exitX=0.5;exitY=0;exitDx=0;exitDy=0;exitPerimeter=0;" edge="1" parent="1" source="xmToaTjJYsY2-gtkwXPX-106" target="xmToaTjJYsY2-gtkwXPX-119">
          <mxGeometry relative="1" as="geometry">
            <Array as="points">
              <mxPoint x="431" y="130" />
            </Array>
          </mxGeometry>
        </mxCell>
        <mxCell id="xmToaTjJYsY2-gtkwXPX-106" value="" style="shape=mxgraph.cisco.security.firewall;sketch=0;html=1;pointerEvents=1;dashed=0;fillColor=#036897;strokeColor=#ffffff;strokeWidth=2;verticalLabelPosition=bottom;verticalAlign=top;align=center;outlineConnect=0;" vertex="1" parent="1">
          <mxGeometry x="416" y="131.5" width="29" height="67" as="geometry" />
        </mxCell>
        <mxCell id="xmToaTjJYsY2-gtkwXPX-107" style="edgeStyle=orthogonalEdgeStyle;rounded=0;orthogonalLoop=1;jettySize=auto;html=1;exitX=0.5;exitY=0;exitDx=0;exitDy=0;exitPerimeter=0;entryX=0.5;entryY=1;entryDx=0;entryDy=0;entryPerimeter=0;" edge="1" parent="1" source="xmToaTjJYsY2-gtkwXPX-89" target="xmToaTjJYsY2-gtkwXPX-106">
          <mxGeometry relative="1" as="geometry">
            <Array as="points">
              <mxPoint x="417" y="260" />
              <mxPoint x="417" y="260" />
            </Array>
          </mxGeometry>
        </mxCell>
        <mxCell id="xmToaTjJYsY2-gtkwXPX-109" style="edgeStyle=orthogonalEdgeStyle;rounded=0;orthogonalLoop=1;jettySize=auto;html=1;exitX=0.98;exitY=0.5;exitDx=0;exitDy=0;exitPerimeter=0;" edge="1" parent="1" source="xmToaTjJYsY2-gtkwXPX-108" target="xmToaTjJYsY2-gtkwXPX-106">
          <mxGeometry relative="1" as="geometry" />
        </mxCell>
        <mxCell id="xmToaTjJYsY2-gtkwXPX-108" value="" style="shape=mxgraph.cisco.switches.workgroup_switch;sketch=0;html=1;pointerEvents=1;dashed=0;fillColor=#036897;strokeColor=#ffffff;strokeWidth=2;verticalLabelPosition=bottom;verticalAlign=top;align=center;outlineConnect=0;" vertex="1" parent="1">
          <mxGeometry x="45" y="150" width="75" height="30" as="geometry" />
        </mxCell>
        <mxCell id="xmToaTjJYsY2-gtkwXPX-110" value="" style="shape=mxgraph.cisco.servers.fileserver;sketch=0;html=1;pointerEvents=1;dashed=0;fillColor=#036897;strokeColor=#ffffff;strokeWidth=2;verticalLabelPosition=bottom;verticalAlign=top;align=center;outlineConnect=0;" vertex="1" parent="1">
          <mxGeometry x="-190" y="60" width="43" height="50" as="geometry" />
        </mxCell>
        <mxCell id="xmToaTjJYsY2-gtkwXPX-111" value="" style="shape=mxgraph.cisco.servers.fileserver;sketch=0;html=1;pointerEvents=1;dashed=0;fillColor=#036897;strokeColor=#ffffff;strokeWidth=2;verticalLabelPosition=bottom;verticalAlign=top;align=center;outlineConnect=0;" vertex="1" parent="1">
          <mxGeometry x="-300" y="147" width="43" height="50" as="geometry" />
        </mxCell>
        <mxCell id="xmToaTjJYsY2-gtkwXPX-112" value="" style="shape=mxgraph.cisco.servers.fileserver;sketch=0;html=1;pointerEvents=1;dashed=0;fillColor=#036897;strokeColor=#ffffff;strokeWidth=2;verticalLabelPosition=bottom;verticalAlign=top;align=center;outlineConnect=0;" vertex="1" parent="1">
          <mxGeometry x="-200" y="220" width="43" height="50" as="geometry" />
        </mxCell>
        <mxCell id="xmToaTjJYsY2-gtkwXPX-113" style="edgeStyle=orthogonalEdgeStyle;rounded=0;orthogonalLoop=1;jettySize=auto;html=1;exitX=0.88;exitY=0.92;exitDx=0;exitDy=0;exitPerimeter=0;entryX=0.5;entryY=0.98;entryDx=0;entryDy=0;entryPerimeter=0;" edge="1" parent="1" source="xmToaTjJYsY2-gtkwXPX-112" target="xmToaTjJYsY2-gtkwXPX-108">
          <mxGeometry relative="1" as="geometry" />
        </mxCell>
        <mxCell id="xmToaTjJYsY2-gtkwXPX-114" style="edgeStyle=orthogonalEdgeStyle;rounded=0;orthogonalLoop=1;jettySize=auto;html=1;exitX=1;exitY=0.5;exitDx=0;exitDy=0;exitPerimeter=0;entryX=0.5;entryY=0;entryDx=0;entryDy=0;entryPerimeter=0;" edge="1" parent="1" source="xmToaTjJYsY2-gtkwXPX-110" target="xmToaTjJYsY2-gtkwXPX-108">
          <mxGeometry relative="1" as="geometry" />
        </mxCell>
        <mxCell id="xmToaTjJYsY2-gtkwXPX-115" style="edgeStyle=orthogonalEdgeStyle;rounded=0;orthogonalLoop=1;jettySize=auto;html=1;exitX=1;exitY=0.5;exitDx=0;exitDy=0;exitPerimeter=0;entryX=0;entryY=0.5;entryDx=0;entryDy=0;entryPerimeter=0;" edge="1" parent="1" source="xmToaTjJYsY2-gtkwXPX-111" target="xmToaTjJYsY2-gtkwXPX-108">
          <mxGeometry relative="1" as="geometry">
            <Array as="points">
              <mxPoint x="-257" y="165" />
            </Array>
          </mxGeometry>
        </mxCell>
        <mxCell id="xmToaTjJYsY2-gtkwXPX-116" value="WEB server" style="text;html=1;align=center;verticalAlign=middle;resizable=0;points=[];autosize=1;strokeColor=none;fillColor=none;" vertex="1" parent="1">
          <mxGeometry x="-235" y="28" width="90" height="30" as="geometry" />
        </mxCell>
        <mxCell id="xmToaTjJYsY2-gtkwXPX-117" value="DNS server" style="text;html=1;align=center;verticalAlign=middle;resizable=0;points=[];autosize=1;strokeColor=none;fillColor=none;" vertex="1" parent="1">
          <mxGeometry x="-195" y="178" width="90" height="30" as="geometry" />
        </mxCell>
        <mxCell id="xmToaTjJYsY2-gtkwXPX-118" value="Email server" style="text;html=1;align=center;verticalAlign=middle;resizable=0;points=[];autosize=1;strokeColor=none;fillColor=none;" vertex="1" parent="1">
          <mxGeometry x="-355" y="88" width="90" height="30" as="geometry" />
        </mxCell>
        <mxCell id="xmToaTjJYsY2-gtkwXPX-119" value="" style="shape=mxgraph.cisco.routers.10700;sketch=0;html=1;pointerEvents=1;dashed=0;fillColor=#036897;strokeColor=#ffffff;strokeWidth=2;verticalLabelPosition=bottom;verticalAlign=top;align=center;outlineConnect=0;" vertex="1" parent="1">
          <mxGeometry x="392" y="-110" width="78" height="53" as="geometry" />
        </mxCell>
        <mxCell id="xmToaTjJYsY2-gtkwXPX-126" style="edgeStyle=orthogonalEdgeStyle;rounded=0;orthogonalLoop=1;jettySize=auto;html=1;exitX=0.88;exitY=0.1;exitDx=0;exitDy=0;exitPerimeter=0;" edge="1" parent="1" source="xmToaTjJYsY2-gtkwXPX-121" target="xmToaTjJYsY2-gtkwXPX-125">
          <mxGeometry relative="1" as="geometry" />
        </mxCell>
        <mxCell id="xmToaTjJYsY2-gtkwXPX-121" value="" style="shape=mxgraph.cisco.routers.router;sketch=0;html=1;pointerEvents=1;dashed=0;fillColor=#036897;strokeColor=#ffffff;strokeWidth=2;verticalLabelPosition=bottom;verticalAlign=top;align=center;outlineConnect=0;" vertex="1" parent="1">
          <mxGeometry x="762" y="-230" width="65" height="40" as="geometry" />
        </mxCell>
        <mxCell id="xmToaTjJYsY2-gtkwXPX-122" style="edgeStyle=orthogonalEdgeStyle;rounded=0;orthogonalLoop=1;jettySize=auto;html=1;exitX=0.88;exitY=0.1;exitDx=0;exitDy=0;exitPerimeter=0;entryX=0;entryY=0.5;entryDx=0;entryDy=0;entryPerimeter=0;" edge="1" parent="1" source="xmToaTjJYsY2-gtkwXPX-119" target="xmToaTjJYsY2-gtkwXPX-121">
          <mxGeometry relative="1" as="geometry">
            <Array as="points">
              <mxPoint x="450" y="-105" />
              <mxPoint x="450" y="-210" />
            </Array>
          </mxGeometry>
        </mxCell>
        <mxCell id="xmToaTjJYsY2-gtkwXPX-123" value="MAIN" style="text;html=1;align=center;verticalAlign=middle;resizable=0;points=[];autosize=1;strokeColor=none;fillColor=none;" vertex="1" parent="1">
          <mxGeometry x="445" y="-62" width="50" height="30" as="geometry" />
        </mxCell>
        <mxCell id="xmToaTjJYsY2-gtkwXPX-125" value="" style="image;html=1;image=img/lib/clip_art/networking/Cloud_128x128.png" vertex="1" parent="1">
          <mxGeometry x="980" y="-340" width="80" height="80" as="geometry" />
        </mxCell>
        <mxCell id="xmToaTjJYsY2-gtkwXPX-130" style="edgeStyle=orthogonalEdgeStyle;rounded=0;orthogonalLoop=1;jettySize=auto;html=1;exitX=0.98;exitY=0.5;exitDx=0;exitDy=0;exitPerimeter=0;" edge="1" parent="1" source="xmToaTjJYsY2-gtkwXPX-127" target="xmToaTjJYsY2-gtkwXPX-129">
          <mxGeometry relative="1" as="geometry" />
        </mxCell>
        <mxCell id="xmToaTjJYsY2-gtkwXPX-127" value="" style="shape=mxgraph.cisco.switches.workgroup_switch;sketch=0;html=1;pointerEvents=1;dashed=0;fillColor=#036897;strokeColor=#ffffff;strokeWidth=2;verticalLabelPosition=bottom;verticalAlign=top;align=center;outlineConnect=0;" vertex="1" parent="1">
          <mxGeometry x="1225" y="-315" width="75" height="30" as="geometry" />
        </mxCell>
        <mxCell id="xmToaTjJYsY2-gtkwXPX-128" style="edgeStyle=orthogonalEdgeStyle;rounded=0;orthogonalLoop=1;jettySize=auto;html=1;exitX=1;exitY=0.5;exitDx=0;exitDy=0;entryX=0.16;entryY=0.23;entryDx=0;entryDy=0;entryPerimeter=0;" edge="1" parent="1" source="xmToaTjJYsY2-gtkwXPX-125" target="xmToaTjJYsY2-gtkwXPX-127">
          <mxGeometry relative="1" as="geometry">
            <Array as="points">
              <mxPoint x="1237" y="-300" />
            </Array>
          </mxGeometry>
        </mxCell>
        <mxCell id="xmToaTjJYsY2-gtkwXPX-129" value="" style="shape=mxgraph.cisco.computers_and_peripherals.workstation;sketch=0;html=1;pointerEvents=1;dashed=0;fillColor=#036897;strokeColor=#ffffff;strokeWidth=2;verticalLabelPosition=bottom;verticalAlign=top;align=center;outlineConnect=0;" vertex="1" parent="1">
          <mxGeometry x="1630" y="-315" width="40" height="30" as="geometry" />
        </mxCell>
      </root>
    </mxGraphModel>
  </diagram>
</mxfile>
